<svg xmlns="http://www.w3.org/2000/svg" viewBox="0 0 100 100" fill="none" shape-rendering="auto"><metadata xmlns:rdf="http://www.w3.org/1999/02/22-rdf-syntax-ns#" xmlns:xsi="http://www.w3.org/2001/XMLSchema-instance" xmlns:dc="http://purl.org/dc/elements/1.1/" xmlns:dcterms="http://purl.org/dc/terms/"><rdf:RDF><rdf:Description><dc:title>My Avatar Style</dc:title><dcterms:license xsi:type="dcterms:URI">https://creativecommons.org/licenses/by/4.0/</dcterms:license><dc:rights>Remix of „My Avatar Style” by „Unknown”, licensed under „CC BY 4.0” (https://creativecommons.org/licenses/by/4.0/)</dc:rights></rdf:Description></rdf:RDF></metadata><mask id="viewboxMask"><rect width="100" height="100" rx="0" ry="0" x="0" y="0" fill="#fff" /></mask><g mask="url(#viewboxMask)"><rect fill="#2e3a59" width="100" height="100" x="0" y="0" /><rect width="100" height="100" fill="#f4f4f4"/><path d="M32.325 15.113c-.032.075.02.62.105 1.21.137.888.148 1.263.053 2.248-.074.643-.222 1.532-.338 1.96a11.5 11.5 0 0 1-.527 1.467c-.179.407-.38.696-.474.696-.084 0-.285-.16-.443-.353a4 4 0 0 0-.422-.428c-.073-.043-.232-.022-.348.032-.147.075-.21.214-.21.46 0 .182-.106.707-.222 1.146-.126.439-.358 1.07-.527 1.392-.168.321-.558.9-.875 1.285-.305.385-.864.91-1.233 1.178l-.675.482c-1.76 0-1.982-.043-2.477-.29-.337-.16-.77-.503-1.033-.802a4.2 4.2 0 0 1-.664-1.071c-.105-.31-.2-.707-.2-.89 0-.181-.043-.417-.106-.535a.41.41 0 0 0-.369-.214c-.19 0-.326.107-.464.354-.116.182-.274.61-.369.931a4.4 4.4 0 0 0-.168 1.018c0 .235.084.792.2 1.231.105.44.348 1.103.527 1.478.18.364.812 1.35 1.413 2.195.6.835 1.286 1.831 1.528 2.217.232.385.59 1.06.79 1.499s.412 1.017.465 1.285c.052.268.073.771.031 1.124a2.9 2.9 0 0 1-.38 1.168c-.168.289-.474.663-.674.835s-.6.428-.896.578a2.6 2.6 0 0 1-1.16.29c-.463.01-.727-.033-.927-.161-.158-.107-.39-.418-.517-.696-.21-.44-.242-.697-.242-1.724 0-1.05-.021-1.232-.18-1.318-.105-.053-.252-.075-.316-.043-.073.022-.168.161-.21.29-.043.139-.106 1.113-.137 2.173a36 36 0 0 0 .042 3.427c.063.825.21 2.078.327 2.784.116.707.369 1.842.548 2.517s.537 1.831.8 2.57c.264.739.823 2.013 1.234 2.838a39 39 0 0 0 1.434 2.602c.369.6 1.233 1.852 1.918 2.784.686.921 1.571 2.056 1.972 2.517.463.514.706.878.664.963-.042.065-.654.9-1.35 1.842-.706.943-1.528 2.142-1.834 2.677a39 39 0 0 0-1.223 2.303 42 42 0 0 0-1.18 2.677c-.295.739-.664 1.756-.812 2.28-.147.515-.316.932-.38.932-.052 0-.4.279-.748.621-.358.332-.685.697-.738.804-.052.096-.063.289-.031.428.063.225.105.236.632.16l.57-.085c-.854 1.146-1.36 1.992-1.656 2.613-.305.62-.558 1.21-.558 1.296 0 .085.084.192.19.235.105.043.337-.021.58-.16.347-.215.379-.215.337-.043-.022.096-.137.567-.253 1.038s-.306 1.36-.422 1.981c-.116.622-.306 1.8-.432 2.624A43 43 0 0 0 19 88.798V100h51.58s-1.223-12.294-1.213-13.644c0-1.349-.053-2.998-.116-3.64a47 47 0 0 0-.327-2.464 37 37 0 0 0-.527-2.57 43 43 0 0 0-.843-2.89A54 54 0 0 0 66.49 71.9a37 37 0 0 0-1.107-2.463 30 30 0 0 0-.853-1.617l-.285-.428c2.646.075 3.679.032 4.744-.086.875-.107 2.034-.279 2.582-.407a24 24 0 0 0 2.109-.589c.822-.279 1.201-.353 1.475-.3.2.043 1.086.31 1.95.6.876.3 2.109.792 2.741 1.103.633.321 1.413.77 1.719 1.017.295.236.748.718 1.001 1.05.243.332.76 1.231 1.139 2.002.569 1.167.727 1.413.948 1.435.137.021.306-.022.37-.107.073-.075.242-.793.4-1.585.147-.792.316-1.831.38-2.302.063-.472.136-1.939.178-3.266.043-1.864.022-2.752-.115-3.909-.095-.825-.264-1.938-.38-2.463a42 42 0 0 0-.411-1.713 23 23 0 0 0-.57-1.714c-.2-.524-.516-1.274-.706-1.66a27 27 0 0 0-.832-1.542c-.264-.47-.601-.985-.749-1.145l-.263-.29a67 67 0 0 0-3.374.729c-.927.235-2.445.664-3.373.963-1.486.472-1.792.536-2.614.536-.59 0-1.244-.086-1.834-.236l-.928-.225c.896-.61 1.423-1.07 1.74-1.424s.727-.9.906-1.22c.18-.322.464-.954.622-1.393.242-.664.306-1.028.348-2.088.031-.824 0-1.52-.085-1.927-.073-.354-.326-1.028-.569-1.5a7 7 0 0 0-1.075-1.552l-.664-.696c.527-.429.801-.814.97-1.136.19-.385.284-.738.284-1.081 0-.364-.042-.525-.158-.568-.084-.032-.38.022-.653.118-.38.129-.612.15-.918.086-.379-.086-.421-.14-.558-.632-.085-.29-.211-.6-.274-.675a.48.48 0 0 0-.285-.139c-.084 0-.274.129-.422.29-.147.15-.442.396-.653.535-.222.139-.443.257-.506.257s-.106-.086-.106-.182c0-.107-.126-.6-.274-1.103a18 18 0 0 0-.695-1.82c-.222-.504-.76-1.436-1.192-2.089a23 23 0 0 0-1.602-2.142 29 29 0 0 0-1.887-1.927 42 42 0 0 0-2.045-1.778c-.548-.45-1.802-1.402-2.793-2.13a316 316 0 0 0-2.636-1.918 68 68 0 0 1-1.897-1.38c-.58-.44-1.55-1.318-2.161-1.94-.875-.888-1.202-1.316-1.54-1.99-.263-.515-.495-1.168-.579-1.65-.105-.535-.21-.814-.337-.878-.116-.064-.243-.054-.359.043-.105.064-.284.246-.421.396-.127.15-.37.535-.549.857a6 6 0 0 0-.432 1.178 5 5 0 0 0-.095 1.199c.021.342.01.621-.042.621-.042 0-.095-.043-.126-.107-.032-.054-.327-.31-.664-.557-.327-.246-.907-.6-1.286-.792a8 8 0 0 0-1.37-.525c-.475-.129-.94-.171-1.53-.129-.653.032-1.053.129-1.791.44-.517.224-1.139.47-1.37.567a5 5 0 0 1-1.002.225c-.453.043-.738 0-1.297-.204-.4-.139-.97-.45-1.265-.696-.305-.246-.706-.696-.885-1.017a4 4 0 0 1-.475-1.328c-.137-.728-.147-.75-.463-.782-.2-.021-.348.022-.39.107" fill="#2a9d8f"/><path d="M19.746 42.812A23 23 0 0 1 16.8 42.2c-4.782-1.304-9.64-4.045-12.733-5.79-.464-.262-.889-.501-1.267-.71L0 34v66h19V88.798c.042-.696.169-1.938.285-2.763.126-.825.316-2.002.432-2.623s.306-1.51.422-1.982.232-.942.253-1.038c.042-.172.01-.172-.338.043-.242.139-.474.203-.58.16s-.19-.15-.19-.236.254-.674.56-1.295c.294-.621.8-1.467 1.654-2.613l-.569.086c-.527.075-.57.064-.632-.161-.032-.14-.021-.332.031-.428.053-.107.38-.471.738-.803.348-.343.696-.622.749-.622.063 0 .232-.417.38-.931.147-.525.516-1.542.81-2.281.285-.739.823-1.938 1.181-2.677s.907-1.767 1.223-2.303c.306-.535 1.128-1.734 1.835-2.677.695-.942 1.307-1.777 1.349-1.842.042-.085-.2-.45-.664-.963-.4-.46-1.286-1.596-1.972-2.517-.685-.931-1.55-2.184-1.918-2.784a39 39 0 0 1-1.434-2.602c-.41-.825-.97-2.1-1.233-2.838a39 39 0 0 1-.801-2.57c-.18-.675-.433-1.81-.548-2.517a39 39 0 0 1-.277-2.21M70.58 100H100V17l-2.8.7c-2.9.6-8.5 2-14 3.8-.978.32-1.953.66-2.926.997-4.498 1.565-8.952 3.114-13.474 2.703-1.796-.163-3.603-.636-5.42-1.111-2.48-.649-4.98-1.302-7.499-1.183.294.213.569.409.77.549.464.331 1.645 1.188 2.636 1.916.99.729 2.245 1.681 2.793 2.131a42 42 0 0 1 2.045 1.778c.58.525 1.423 1.403 1.887 1.927.453.525 1.18 1.489 1.602 2.142.433.653.97 1.585 1.192 2.088.231.504.537 1.318.695 1.82.148.504.274.997.274 1.104 0 .096.043.182.106.182s.284-.118.506-.257c.21-.14.506-.386.653-.536.148-.16.338-.289.422-.289s.21.065.285.14c.063.074.19.385.274.674.137.493.179.546.558.632.306.064.538.043.918-.086.274-.096.569-.15.653-.118.116.043.158.204.158.568 0 .343-.095.696-.284 1.081-.169.322-.443.707-.97 1.136l.664.696a7 7 0 0 1 1.075 1.552c.243.472.496 1.146.57 1.5.084.407.115 1.103.084 1.927-.042 1.06-.106 1.424-.348 2.088a11.5 11.5 0 0 1-.622 1.392c-.18.322-.59.868-.907 1.221-.316.354-.843.814-1.739 1.424l.928.225c.59.15 1.244.236 1.834.236.822 0 1.128-.064 2.614-.536.928-.3 2.446-.728 3.373-.963a67 67 0 0 1 3.374-.728l.263.289c.148.16.485.674.749 1.145.274.46.643 1.157.833 1.542.19.386.505 1.136.706 1.66.2.525.453 1.296.569 1.714s.295 1.188.411 1.713.285 1.638.38 2.463c.137 1.157.158 2.045.116 3.909-.043 1.327-.116 2.794-.18 3.266a57 57 0 0 1-.38 2.302c-.157.792-.326 1.51-.4 1.585-.063.085-.232.128-.369.107-.221-.022-.38-.268-.948-1.435-.38-.771-.896-1.67-1.139-2.002-.253-.332-.706-.814-1.001-1.05-.306-.246-1.086-.696-1.719-1.017-.632-.31-1.865-.803-2.74-1.103-.865-.29-1.75-.557-1.95-.6-.275-.053-.654.021-1.476.3a25 25 0 0 1-2.109.589c-.548.128-1.707.3-2.582.407-1.065.118-2.098.16-4.744.085l.285.429c.147.246.537.974.853 1.617A38 38 0 0 1 66.49 71.9c.295.707.77 2.013 1.065 2.891.295.889.675 2.185.843 2.891.18.707.411 1.864.527 2.57.116.707.264 1.82.327 2.463s.116 2.292.116 3.641C69.357 87.706 70.58 100 70.58 100" fill="#a8dadc"/><path d="M23.51 54.642c-2.23.903-4.462 1.349-6.71.858-5.465-1.192-11.028-7.715-13.944-11.134L2.8 44.3 0 41v59h19V88.798c.042-.696.169-1.938.285-2.763.126-.825.316-2.002.432-2.623s.306-1.51.422-1.982.232-.942.253-1.038c.042-.172.01-.172-.338.043-.242.139-.474.203-.58.16s-.19-.15-.19-.236.254-.674.56-1.295c.294-.621.8-1.467 1.654-2.613l-.569.086c-.527.075-.57.064-.632-.161-.032-.14-.021-.332.031-.428.053-.107.38-.471.738-.803.348-.343.696-.622.749-.622.063 0 .232-.417.38-.931.147-.525.516-1.542.81-2.281.285-.739.823-1.938 1.181-2.677s.907-1.767 1.223-2.303c.306-.535 1.128-1.734 1.835-2.677.695-.942 1.307-1.777 1.349-1.842.042-.085-.2-.45-.664-.963-.4-.46-1.286-1.596-1.972-2.517-.685-.931-1.55-2.184-1.918-2.784a25 25 0 0 1-.53-.906M70.58 100H100V44l-2.8 1.2c-.815.309-1.842.72-3.02 1.192-3.018 1.209-7.025 2.813-10.98 4.108-4.278 1.4-8.495 2.558-12.746 2.345q-.277.207-.623.443l.928.225c.59.15 1.244.236 1.834.236.822 0 1.128-.064 2.614-.536.928-.3 2.446-.728 3.373-.963a67 67 0 0 1 3.374-.728l.263.289c.148.16.485.674.749 1.145.274.46.643 1.157.833 1.542.19.386.505 1.136.706 1.66.2.525.453 1.296.569 1.714s.295 1.188.411 1.713.285 1.638.38 2.463c.137 1.157.158 2.045.116 3.909-.043 1.327-.116 2.794-.18 3.266a57 57 0 0 1-.38 2.302c-.157.792-.326 1.51-.4 1.585-.063.085-.232.128-.369.107-.221-.022-.38-.268-.948-1.435-.38-.771-.896-1.67-1.139-2.002-.253-.332-.706-.814-1.001-1.05-.306-.246-1.086-.696-1.719-1.017-.632-.31-1.865-.803-2.74-1.103-.865-.29-1.75-.557-1.95-.6-.275-.053-.654.021-1.476.3a25 25 0 0 1-2.109.589c-.548.128-1.707.3-2.582.407-1.065.118-2.098.16-4.744.085l.285.429c.147.246.537.974.853 1.617.327.642.823 1.756 1.107 2.463.295.707.77 2.013 1.065 2.891.295.889.675 2.185.843 2.891.18.707.411 1.864.527 2.57.116.707.264 1.82.327 2.463s.116 2.292.116 3.641C69.357 87.706 70.58 100 70.58 100" fill="#d4a373"/><path d="M19.81 79.13a13.6 13.6 0 0 0-3.01-.08c-5.074.455-10.232 4.19-13.278 6.396q-.384.279-.722.52L0 88.142V100h19V88.798c.042-.696.169-1.938.285-2.763.126-.825.316-2.002.432-2.623s.306-1.51.422-1.982.232-.942.253-1.038c.042-.172.01-.172-.338.043-.242.139-.474.203-.58.16s-.19-.15-.19-.236c0-.082.236-.632.527-1.228M70.58 100s-.78-7.832-1.089-11.68c1.646-.494 3.285-1.173 4.924-1.852 2.92-1.21 5.838-2.418 8.785-2.577 5.104-.366 10.293 2.5 13.332 4.179l.668.368 2.8 1.68V100z" fill="#6d6875"/></g></svg>