<svg width="24" height="24" viewBox="0 0 24 24" fill="none" xmlns="http://www.w3.org/2000/svg">
<rect width="24" height="24" rx="6" fill="#00D594"/>
<path d="M14.5714 9.53233C14.5241 9.50758 14.4904 9.47238 14.4675 9.42838L12 3.75L9.53233 9.42857C9.5096 9.47238 9.47568 9.50758 9.42838 9.53252L3.75 12L9.42857 14.4677C9.4733 14.4866 9.50868 14.5201 9.53252 14.5716L12 20.25L14.4677 14.5714C14.4915 14.5201 14.5269 14.4866 14.5716 14.4675L20.25 12L14.5714 9.53233ZM12 13.6944C11.0643 13.6944 10.3056 12.9357 10.3056 12C10.3056 11.0643 11.0641 10.3056 12 10.3056C12.9359 10.3056 13.6944 11.0643 13.6944 12C13.6944 12.9357 12.9357 13.6944 12 13.6944Z" fill="white"/>
</svg>
