<svg width="24" height="24" viewBox="0 0 24 24" fill="none" xmlns="http://www.w3.org/2000/svg">
<path d="M19.8 6.75H18V5.58333C18 5.42862 17.9368 5.28025 17.8243 5.17085C17.7117 5.06146 17.5591 5 17.4 5H6.6C6.44087 5 6.28826 5.06146 6.17574 5.17085C6.06321 5.28025 6 5.42862 6 5.58333V6.75H4.2C3.88174 6.75 3.57652 6.87292 3.35147 7.09171C3.12643 7.3105 3 7.60725 3 7.91667V9.08333C3 9.85688 3.31607 10.5987 3.87868 11.1457C4.15726 11.4166 4.48797 11.6314 4.85195 11.778C5.21593 11.9246 5.60603 12 6 12H6.27375C6.62719 13.0889 7.30107 14.0533 8.21213 14.774C9.12318 15.4946 10.2315 15.94 11.4 16.0549V17.8333H9.6C9.44087 17.8333 9.28826 17.8948 9.17574 18.0042C9.06321 18.1136 9 18.262 9 18.4167C9 18.5714 9.06321 18.7197 9.17574 18.8291C9.28826 18.9385 9.44087 19 9.6 19H14.4C14.5591 19 14.7117 18.9385 14.8243 18.8291C14.9368 18.7197 15 18.5714 15 18.4167C15 18.262 14.9368 18.1136 14.8243 18.0042C14.7117 17.8948 14.5591 17.8333 14.4 17.8333H12.6V16.0527C14.9955 15.8172 16.983 14.1831 17.706 12H18C18.7956 12 19.5587 11.6927 20.1213 11.1457C20.6839 10.5987 21 9.85688 21 9.08333V7.91667C21 7.60725 20.8736 7.3105 20.6485 7.09171C20.4235 6.87292 20.1183 6.75 19.8 6.75ZM6 10.8333C5.52261 10.8333 5.06477 10.649 4.72721 10.3208C4.38964 9.99258 4.2 9.54746 4.2 9.08333V7.91667H6V10.25C6 10.4444 6.00975 10.6389 6.02925 10.8333H6ZM19.8 9.08333C19.8 9.54746 19.6104 9.99258 19.2728 10.3208C18.9352 10.649 18.4774 10.8333 18 10.8333H17.9625C17.9871 10.6178 17.9996 10.4012 18 10.1844V7.91667H19.8V9.08333Z" fill="#CDCED4"/>
</svg>
